
<svg width="24px" height="20px" viewBox="0 0 24 20" version="1.1" xmlns="http://www.w3.org/2000/svg" xmlns:xlink="http://www.w3.org/1999/xlink">
    <g id="Page-1" stroke="none" stroke-width="1" fill="none" fill-rule="evenodd">
        <g id="Desktop-Copy" transform="translate(-321.000000, -798.000000)" fill="#ffffff">
            <g id="iconmonstr-minimize-thin" transform="translate(333.000000, 808.000000) rotate(180.000000) translate(-333.000000, -808.000000) translate(321.000000, 798.000000)">
                <path d="M24,20 L0,20 L0,0 L24,0 L24,20 Z M1,11 L1,19 L11,19 L11,11 L1,11 Z M23,19 L23,1 L1,1 L1,10 L12,10 L12,19 L23,19 Z M19,10 L14,10 L14,5 L15,5 L15,8.241 L20.241,3 L21,3.759 L15.759,9 L19,9 L19,10 Z" id="Shape"></path>
            </g>
        </g>
    </g>
</svg>