<svg width="24" height="24" xmlns="http://www.w3.org/2000/svg" fill-rule="evenodd" clip-rule="evenodd"><path d="M13.5 20c-1.104 0-2 .896-2 2s.896 2 2 2 2-.896 2-2-.896-2-2-2zm-10.551 4c-.598 0-2.429-1.754-2.747-4.304-.424-3.414 2.124-5.593 4.413-5.87.587-1.895 2.475-4.684 6.434-4.77.758-1.982 3.409-4.507 6.84-3.186 1.647.634 3.101 2.101 3.705 3.737.231.624-.71.965-.937.347-.51-1.378-1.737-2.615-3.127-3.151-2.577-.99-4.695.731-5.422 2.298 1.107.12 2.092.455 2.755.889.909.594 1.473 1.558 1.508 2.577.031.889-.33 1.687-.991 2.187-.654.496-1.492.643-2.298.404-.966-.286-1.748-1.076-2.143-2.169-.287-.793-.384-1.847-.178-2.921-3.064.185-4.537 2.306-5.075 3.742 1.18.102 2.211.574 2.831 1.012.959.676 1.497 1.6 1.513 2.599.015.859-.363 1.664-1.011 2.155-.608.46-1.535.599-2.363.348-.961-.289-1.7-1.041-2.079-2.118-.255-.723-.375-1.776-.204-2.919-1.631.361-3.512 1.995-3.178 4.685.18 1.448 1.008 2.888 2.015 3.502.43.261.242.926-.261.926zm10.551-1c-.552 0-1-.448-1-1s.448-1 1-1 1 .448 1 1-.448 1-1 1zm8.011-6.801l2.489.459-1.744 1.833.333 2.509-2.283-1.092-2.283 1.092.333-2.509-1.744-1.833 2.489-.459 1.205-2.225 1.205 2.225zm-1.759.897l-1.143.21.801.843-.153 1.152 1.049-.501 1.049.501-.153-1.152.801-.843-1.143-.21-.554-1.022-.554 1.022zm-14.345-2.3c-.202 1.024-.128 1.993.113 2.678.347.984.966 1.355 1.424 1.492.604.183 1.175.036 1.472-.187.388-.294.624-.808.614-1.34-.011-.673-.398-1.313-1.09-1.801-.545-.385-1.479-.803-2.533-.842zm6.373-4.716c-.226 1.018-.11 1.99.099 2.569.287.79.828 1.356 1.486 1.55.501.148 1.014.06 1.411-.242.398-.301.615-.795.596-1.355-.025-.705-.409-1.353-1.056-1.775-.511-.334-1.448-.657-2.536-.747zm-5.812-7.369l3.032.558-2.124 2.234.405 3.057-2.781-1.331-2.781 1.331.405-3.057-2.124-2.234 3.032-.558 1.468-2.711 1.468 2.711zm-2.285.897l-1.686.31 1.182 1.243-.226 1.7 1.547-.74 1.547.74-.226-1.7 1.182-1.243-1.686-.31-.817-1.508-.817 1.508zm17.817-3.608c-1.38 0-2.5 1.12-2.5 2.5s1.12 2.5 2.5 2.5 2.5-1.12 2.5-2.5-1.12-2.5-2.5-2.5zm0 4c-.828 0-1.5-.672-1.5-1.5s.672-1.5 1.5-1.5 1.5.672 1.5 1.5-.672 1.5-1.5 1.5z"/></svg>