
<svg width="24px" height="24px" viewBox="0 0 24 24" version="1.1" xmlns="http://www.w3.org/2000/svg" xmlns:xlink="http://www.w3.org/1999/xlink">
    <defs>
        <path d="M11.412,12.241 C11.5440007,12.241 11.6466663,12.2739997 11.72,12.34 C11.7933337,12.4060003 11.83,12.4976661 11.83,12.615 C11.83,12.7396673 11.795167,12.8349997 11.7255,12.901 C11.655833,12.9670003 11.551334,13 11.412,13 L7.771,13 C7.63166597,13 7.52716701,12.9670003 7.4575,12.901 C7.38783299,12.8349997 7.353,12.7396673 7.353,12.615 C7.353,12.4976661 7.3896663,12.4060003 7.463,12.34 C7.5363337,12.2739997 7.63899934,12.241 7.771,12.241 L9.135,12.241 L9.135,6.345 L7.936,7.126 C7.87733304,7.16266685 7.81866696,7.181 7.76,7.181 C7.65733282,7.181 7.56750038,7.13333381 7.4905,7.038 C7.41349962,6.94266619 7.375,6.84000055 7.375,6.73 C7.375,6.57599923 7.43366608,6.46600033 7.551,6.4 L9.223,5.311 C9.34766729,5.23033293 9.47599934,5.19 9.608,5.19 C9.73266729,5.19 9.83533293,5.23033293 9.916,5.311 C9.99666707,5.39166707 10.037,5.5053326 10.037,5.652 L10.037,12.241 L11.412,12.241 Z" id="path-1"></path>
    </defs>
    <g id="Page-1" stroke="none" stroke-width="1" fill="none" fill-rule="evenodd">
        <g id="magnify" fill-rule="nonzero">
            <g fill="#FFFFFF" id="Shape">
                <path d="M15.853,16.56 C14.17,18.077 11.942,19 9.5,19 C4.257,19 0,14.743 0,9.5 C0,4.257 4.257,0 9.5,0 C14.743,0 19,4.257 19,9.5 C19,11.942 18.077,14.17 16.56,15.853 L24,23.293 L23.293,24 L15.853,16.56 Z M9.5,1 C4.809,1 1,4.809 1,9.5 C1,14.191 4.809,18 9.5,18 C14.191,18 18,14.191 18,9.5 C18,4.809 14.191,1 9.5,1 Z"></path>
            </g>
            <g id="1">
                <use fill="#000000" xlink:href="#path-1"></use>
                <use fill="#FFFFFF" xlink:href="#path-1"></use>
            </g>
        </g>
    </g>
</svg>