<svg width="24" height="24" xmlns="http://www.w3.org/2000/svg" fill-rule="evenodd" clip-rule="evenodd"><path d="M20.999 23h-17.995l-.003-.994c-.007-1.885.086-2.588 1.981-3.002 2.142-.467 4.111-.987 4.659-2.222.247-.557.177-1.178-.206-1.847-1.387-2.416-1.851-4.565-1.382-6.189h7.907c.45 1.608-.019 3.757-1.395 6.192-.378.671-.444 1.292-.195 1.847.554 1.236 2.516 1.754 4.65 2.219 1.895.414 1.989 1.123 1.98 3.026l-.001.97zm-13.165-21.167c.625 0 1.11.702.666 1.331-.223.316-.169.507-.019.728.319.47.781.858 1.437.858 1.05 0 1.605-.868 1.721-1.604.04-.256.063-.447-.182-.685-.167-.162-.289-.376-.289-.628 0-.46.373-.833.833-.833.46 0 .833.373.833.833 0 .252-.122.466-.289.628-.244.238-.222.429-.182.685.115.736.671 1.604 1.721 1.604.657 0 1.118-.388 1.436-.858.152-.221.206-.412-.018-.728-.443-.629.041-1.331.666-1.331.46 0 .833.373.833.833 0 .332-.359.623-.644.754-.343.158-.356.549-.356.904v3.422h-8v-3.422c0-.355-.013-.746-.356-.904-.284-.131-.644-.422-.644-.754 0-.46.373-.833.833-.833zm11.398 16.195c-1.33-.29-3.556-.775-3.949-1.652-.042-.093-.169-.376.154-.946 1.436-2.541 1.956-4.85 1.557-6.684h.007v-4.422000000000001l.001-.115c.501-.3.999-.838.999-1.543 0-1.01-.822-1.833-1.833-1.833-.69 0-1.317.382-1.636.996-.277.536-.268 1.149.015 1.686-.219.235-.384.235-.463.235-.518 0-.68-.512-.721-.699.305-.349.472-.776.472-1.218 0-1.011-.823-1.833-1.834-1.833-1.011 0-1.833.822-1.833 1.833 0 .442.166.868.472 1.218-.042.186-.204.699-.722.699-.08 0-.249 0-.464-.234.285-.546.292-1.155.016-1.687-.318-.614-.945-.996-1.636-.996-1.011 0-1.833.823-1.833 1.833 0 .704.498 1.242.999 1.542l.001.116v4.422h.017c-.418 1.85.1 4.161 1.549 6.687.327.567.201.85.16.943-.388.874-2.623 1.361-3.958 1.652-2.781.606-2.775 2.261-2.768 3.983l.004 1.989h19.993l.002-1.968c.01-2.095-.172-3.438-2.768-4.004z"/></svg>