
<svg width="24px" height="22px" viewBox="0 0 24 22" version="1.1" xmlns="http://www.w3.org/2000/svg" xmlns:xlink="http://www.w3.org/1999/xlink">
    <g id="Page-1" stroke="none" stroke-width="1" fill="none" fill-rule="evenodd">
        <g id="iconmonstr-log-out-13-(1)" fill="#FFFFFF" fill-rule="nonzero">
            <path d="M21,13.8744096 L21,12.0604096 L17.75,12.0604096 C17.005,12.0604096 16.622,11.8004096 16.299,11.3544096 L14.59,9.05240962 L11.799,12.0764096 L13.308,14.2254096 C13.786,14.9784096 13.822,15.4924096 13.822,16.1774096 L13.822,22.0004096 L11.123,22.0004096 L11.123,16.5264096 C11.102,15.0144096 8.668,13.5814096 7.82,14.8034096 L6.203,17.0844096 C5.844,17.5944096 5.232,17.7704096 4.638,17.7704096 L0,17.7704096 L0,15.1494096 L3.483,15.1464096 C4.027,15.1464096 4.5,14.9534096 4.757,14.3404096 L6.306,10.5584096 C6.575,9.99540962 6.938,9.48240962 7.382,9.04340962 L10.991,5.47040962 L9.971,4.57940962 C9.665,4.31240962 9.255,4.19840962 8.855,4.26840962 L5.856,4.79340962 L5.385,2.59240962 L9.5,1.80840962 C10.271,1.66140962 10.933,1.91140962 11.509,2.44440962 L15.47,6.10040962 C16.098,6.67040962 16.742,7.66340962 17.746,9.14740962 C17.93,9.41940962 18.189,9.80340962 18.799,9.80340962 L21,9.80340962 L21,7.95340962 L24,10.9134096 L21,13.8744096 Z M17.899,5.12740962 C19.302,4.85940962 20.222,3.50440962 19.954,2.10140962 C19.685,0.69840962 18.33,-0.22159038 16.928,0.0464096202 C15.525,0.31540962 14.605,1.67040962 14.873,3.07240962 C15.141,4.47640962 16.496,5.39640962 17.899,5.12740962 Z" id="Shape" transform="translate(12.000000, 11.000205) scale(-1, 1) translate(-12.000000, -11.000205) "></path>
        </g>
    </g>
</svg>