
<svg width="23px" height="25px" viewBox="0 0 23 25" version="1.1" xmlns="http://www.w3.org/2000/svg" xmlns:xlink="http://www.w3.org/1999/xlink">
    <g id="Page-1" stroke="none" stroke-width="1" fill="none" fill-rule="evenodd">
        <g id="shape" fill="#FFFFFF">
            <path d="M8,3 L15,3 L15,1.25 C15,1.184 14.9696667,1.12 14.9148333,1.073 C14.86,1.026 14.7853333,1 14.7083333,1 L8.29166667,1 C8.21466667,1 8.14,1.026 8.08516667,1.073 C8.03033333,1.12 8,1.184 8,1.25 L8,3 Z M20,4 L3,4 L3,22.9473684 C3,23.5284211 3.476,24 4.0625,24 L18.9375,24 C19.524,24 20,23.5284211 20,22.9473684 L20,4 Z M7.6109127,9.90380592 C7.41575123,9.70864445 7.09896739,9.70864445 6.90380592,9.90380592 C6.70864445,10.0989674 6.70864445,10.4157512 6.90380592,10.6109127 L15.3890873,19.0961941 C15.5842488,19.2913555 15.9010326,19.2913555 16.0961941,19.0961941 C16.2913555,18.9010326 16.2913555,18.5842488 16.0961941,18.3890873 L7.6109127,9.90380592 Z M16.0961941,10.6109127 C16.2913555,10.4157512 16.2913555,10.0989674 16.0961941,9.90380592 C15.9010326,9.70864445 15.5842488,9.70864445 15.3890873,9.90380592 L6.90380592,18.3890873 C6.70864445,18.5842488 6.70864445,18.9010326 6.90380592,19.0961941 C7.09896739,19.2913555 7.41575123,19.2913555 7.6109127,19.0961941 L16.0961941,10.6109127 Z M23,3.125 L23,4.16666667 L20.9090909,4.16666667 L20.9090909,22.9166667 C20.9090909,24.0677083 19.9734091,25 18.8181818,25 L4.18181818,25 C3.02659091,25 2.09090909,24.0677083 2.09090909,22.9166667 L2.09090909,4.16666667 L-2.22044605e-16,4.16666667 L-2.22044605e-16,3.125 L7.31818182,3.125 L7.31818182,1.04166667 C7.31818182,0.466666667 7.78654545,0 8.36363636,0 L14.6363636,0 C15.2134545,0 15.6818182,0.466666667 15.6818182,1.04166667 L15.6818182,3.125 L23,3.125 Z" id="Shape"></path>
        </g>
    </g>
</svg>