
<svg width="114px" height="39px" viewBox="0 0 114 39" version="1.1" xmlns="http://www.w3.org/2000/svg" xmlns:xlink="http://www.w3.org/1999/xlink">
    <g id="Welcome" stroke="none" stroke-width="1" fill="none" fill-rule="evenodd">
        <g id="Desktop-HD" transform="translate(-940.000000, -388.000000)" fill="#D8D8D8" fill-rule="nonzero">
            <path d="M945.48,419.76 C945.213332,419.76 945.006667,419.687856 944.86,419.543567 C944.713333,419.399278 944.64,419.194871 944.64,418.930341 L944.64,402.553587 C944.64,402.313105 944.713333,402.120722 944.86,401.976433 C945.006667,401.832144 945.213332,401.76 945.48,401.76 C945.746668,401.76 945.953333,401.832144 946.1,401.976433 C946.246667,402.120722 946.32,402.313105 946.32,402.553587 L946.32,418.930341 C946.32,419.194871 946.246667,419.399278 946.1,419.543567 C945.953333,419.687856 945.746668,419.76 945.48,419.76 Z M945.5,399 C944.013506,399 942.725231,398.497722 941.635135,397.493151 C940.54504,396.488579 940,395.182656 940,393.575342 C940,391.867571 940.520265,390.511421 941.560811,389.506849 C942.601357,388.502278 943.914406,388 945.5,388 C947.085594,388 948.398643,388.502278 949.439189,389.506849 C950.479735,390.511421 951,391.867571 951,393.575342 C951,395.182656 950.45496,396.488579 949.364865,397.493151 C948.274769,398.497722 946.986494,399 945.5,399 Z M945.5,398 C946.716222,398 947.770266,397.589045 948.662162,396.767123 C949.554059,395.945201 950,394.876719 950,393.561644 C950,392.164377 949.574329,391.054799 948.722973,390.232877 C947.871617,389.410955 946.797304,389 945.5,389 C944.202696,389 943.128383,389.410955 942.277027,390.232877 C941.425671,391.054799 941,392.164377 941,393.561644 C941,394.876719 941.445941,395.945201 942.337838,396.767123 C943.229734,397.589045 944.283778,398 945.5,398 Z M945.48,395 C945.079998,395 944.733335,394.866668 944.44,394.6 C944.146665,394.333332 944,393.986669 944,393.56 C944,393.106664 944.139999,392.746668 944.42,392.48 C944.700001,392.213332 945.053331,392.08 945.48,392.08 C945.906669,392.08 946.259999,392.213332 946.54,392.48 C946.820001,392.746668 946.96,393.106664 946.96,393.56 C946.96,393.986669 946.813335,394.333332 946.52,394.6 C946.226665,394.866668 945.880002,395 945.48,395 Z M974.04,405.36 C974.280001,405.36 974.473333,405.433333 974.62,405.58 C974.766667,405.726667 974.84,405.933332 974.84,406.2 L974.84,417.36 C974.84,417.493334 974.793334,417.626666 974.7,417.76 C974.606666,417.893334 974.493334,418.013333 974.36,418.12 C973.266661,418.653336 971.913341,419.079998 970.3,419.4 C968.686659,419.720002 967.026675,419.88 965.32,419.88 C962.626653,419.88 960.313343,419.313339 958.38,418.18 C956.446657,417.046661 954.966672,415.393344 953.94,413.22 C952.913328,411.046656 952.4,408.453348 952.4,405.44 C952.4,402.479985 952.906662,399.920011 953.92,397.76 C954.933338,395.599989 956.393324,393.940006 958.3,392.78 C960.206676,391.619994 962.45332,391.04 965.04,391.04 C966.906676,391.04 968.666658,391.359997 970.32,392 C971.973342,392.640003 973.319995,393.519994 974.36,394.64 C974.626668,394.986668 974.76,395.306665 974.76,395.6 C974.76,395.813334 974.706667,395.993333 974.6,396.14 C974.493333,396.286667 974.346668,396.36 974.16,396.36 C973.946666,396.36 973.720001,396.253334 973.48,396.04 C971.959992,394.759994 970.586673,393.880002 969.36,393.4 C968.133327,392.919998 966.693342,392.68 965.04,392.68 C961.599983,392.68 958.940009,393.793322 957.06,396.02 C955.179991,398.246678 954.24,401.386646 954.24,405.44 C954.24,409.573354 955.193324,412.746656 957.1,414.96 C959.006676,417.173344 961.746649,418.28 965.32,418.28 C966.786674,418.28 968.219993,418.146668 969.62,417.88 C971.020007,417.613332 972.239995,417.240002 973.28,416.76 L973.28,406.96 L966.24,406.96 C965.946665,406.96 965.720001,406.880001 965.56,406.72 C965.399999,406.559999 965.32,406.373334 965.32,406.16 C965.32,405.919999 965.399999,405.726667 965.56,405.58 C965.720001,405.433333 965.946665,405.36 966.24,405.36 L974.04,405.36 Z M990.52,399.8 C990.840002,399.8 991.059999,399.859999 991.18,399.98 C991.300001,400.100001 991.36,400.279999 991.36,400.52 C991.36,400.973336 991.080003,401.24 990.52,401.32 L989.32,401.44 C987.373324,401.626668 985.906672,402.34666 984.92,403.6 C983.933328,404.85334 983.44,406.293325 983.44,407.92 L983.44,418.84 C983.44,419.133335 983.366667,419.359999 983.22,419.52 C983.073333,419.680001 982.866668,419.76 982.6,419.76 C982.333332,419.76 982.126667,419.680001 981.98,419.52 C981.833333,419.359999 981.76,419.133335 981.76,418.84 L981.76,400.72 C981.76,400.106664 982.039997,399.8 982.6,399.8 C982.840001,399.8 983.039999,399.879999 983.2,400.04 C983.360001,400.200001 983.44,400.426665 983.44,400.72 L983.44,403.6 C984.586672,401.306655 986.666652,400.053334 989.68,399.84 L990.24,399.8 L990.52,399.8 Z M1002.24,399.72 C1006.69336,399.72 1008.92,402.106643 1008.92,406.88 L1008.92,418.8 C1008.92,419.093335 1008.84667,419.319999 1008.7,419.48 C1008.55333,419.640001 1008.34667,419.72 1008.08,419.72 C1007.81333,419.72 1007.6,419.633334 1007.44,419.46 C1007.28,419.286666 1007.2,419.066668 1007.2,418.8 L1007.2,416 C1006.61333,417.226673 1005.76667,418.17333 1004.66,418.84 C1003.55333,419.50667 1002.29334,419.84 1000.88,419.84 C999.653327,419.84 998.526672,419.586669 997.5,419.08 C996.473328,418.573331 995.660003,417.873338 995.06,416.98 C994.459997,416.086662 994.16,415.106672 994.16,414.04 C994.16,412.599993 994.539996,411.486671 995.3,410.7 C996.060004,409.913329 997.313325,409.346668 999.06,409 C1000.80668,408.653332 1003.25332,408.48 1006.4,408.48 L1007.2,408.48 L1007.2,406.8 C1007.2,404.906657 1006.82,403.526671 1006.06,402.66 C1005.3,401.793329 1004.10667,401.36 1002.48,401.36 C1001.19999,401.36 1000.06001,401.526665 999.06,401.86 C998.059995,402.193335 997.26667,402.573331 996.68,403 C996.573333,403.08 996.353335,403.233332 996.02,403.46 C995.686665,403.686668 995.413334,403.8 995.2,403.8 C995.013332,403.8 994.846667,403.726667 994.7,403.58 C994.553333,403.433333 994.48,403.253334 994.48,403.04 C994.48,402.533331 994.946662,402.000003 995.88,401.44 C996.813338,400.879997 997.833328,400.453335 998.94,400.16 C1000.04667,399.866665 1001.14666,399.72 1002.24,399.72 Z M1000.88,418.16 C1002.08001,418.16 1003.16,417.873336 1004.12,417.3 C1005.08,416.726664 1005.83333,415.933338 1006.38,414.92 C1006.92667,413.906662 1007.2,412.760006 1007.2,411.48 L1007.2,410.04 L1006.44,410.04 C1003.63999,410.04 1001.50667,410.153332 1000.04,410.38 C998.573326,410.606668 997.54667,410.993331 996.96,411.54 C996.37333,412.086669 996.08,412.893328 996.08,413.96 C996.08,415.186673 996.533329,416.193329 997.44,416.98 C998.346671,417.766671 999.493326,418.16 1000.88,418.16 Z M1024.12,399.72 C1025.82668,399.72 1027.33333,400.139996 1028.64,400.98 C1029.94667,401.820004 1030.96,402.999992 1031.68,404.52 C1032.4,406.040008 1032.76,407.813323 1032.76,409.84 C1032.76,411.84001 1032.4,413.593326 1031.68,415.1 C1030.96,416.606674 1029.94667,417.773329 1028.64,418.6 C1027.33333,419.426671 1025.82668,419.84 1024.12,419.84 C1022.49333,419.84 1021.10001,419.480004 1019.94,418.76 C1018.77999,418.039996 1017.90667,417.000007 1017.32,415.64 L1017.32,426.04 C1017.32,426.333335 1017.24667,426.559999 1017.1,426.72 C1016.95333,426.880001 1016.74667,426.96 1016.48,426.96 C1015.92,426.96 1015.64,426.653336 1015.64,426.04 L1015.64,400.68 C1015.64,400.413332 1015.71333,400.200001 1015.86,400.04 C1016.00667,399.879999 1016.21333,399.8 1016.48,399.8 C1016.74667,399.8 1016.95333,399.879999 1017.1,400.04 C1017.24667,400.200001 1017.32,400.413332 1017.32,400.68 L1017.32,403.84 C1017.90667,402.50666 1018.77999,401.48667 1019.94,400.78 C1021.10001,400.07333 1022.49333,399.72 1024.12,399.72 Z M1024.08,418.2 C1026.24001,418.2 1027.91999,417.473341 1029.12,416.02 C1030.32001,414.566659 1030.92,412.50668 1030.92,409.84 C1030.92,407.17332 1030.32001,405.093341 1029.12,403.6 C1027.91999,402.106659 1026.25334,401.36 1024.12,401.36 C1021.93332,401.36 1020.25334,402.086659 1019.08,403.54 C1017.90666,404.993341 1017.32,407.066653 1017.32,409.76 C1017.32,412.453347 1017.90666,414.533326 1019.08,416 C1020.25334,417.466674 1021.91999,418.2 1024.08,418.2 Z M1046.6,399.72 C1048.92001,399.72 1050.67333,400.339994 1051.86,401.58 C1053.04667,402.820006 1053.64,404.653321 1053.64,407.08 L1053.64,418.84 C1053.64,419.133335 1053.56667,419.359999 1053.42,419.52 C1053.27333,419.680001 1053.06667,419.76 1052.8,419.76 C1052.53333,419.76 1052.32667,419.680001 1052.18,419.52 C1052.03333,419.359999 1051.96,419.133335 1051.96,418.84 L1051.96,407.28 C1051.96,405.19999 1051.54667,403.686671 1050.72,402.74 C1049.89333,401.793329 1048.56001,401.32 1046.72,401.32 C1044.66666,401.32 1043.02001,401.953327 1041.78,403.22 C1040.53999,404.486673 1039.92,406.173323 1039.92,408.28 L1039.92,418.84 C1039.92,419.133335 1039.84667,419.359999 1039.7,419.52 C1039.55333,419.680001 1039.34667,419.76 1039.08,419.76 C1038.84,419.76 1038.64,419.673334 1038.48,419.5 C1038.32,419.326666 1038.24,419.106668 1038.24,418.84 L1038.24,392.08 C1038.24,391.786665 1038.31333,391.560001 1038.46,391.4 C1038.60667,391.239999 1038.81333,391.16 1039.08,391.16 C1039.34667,391.16 1039.55333,391.239999 1039.7,391.4 C1039.84667,391.560001 1039.92,391.786665 1039.92,392.08 L1039.92,403.6 C1040.50667,402.34666 1041.38666,401.38667 1042.56,400.72 C1043.73334,400.05333 1045.07999,399.72 1046.6,399.72 Z" id="iGraphbyeffectnode.com-Copy"></path>
        </g>
    </g>
</svg>