
<svg width="306px" height="40px" viewBox="0 0 306 40" version="1.1" xmlns="http://www.w3.org/2000/svg" xmlns:xlink="http://www.w3.org/1999/xlink">
    <defs>
        <path d="M945.24,368.2 C944.973332,368.2 944.766667,368.127856 944.62,367.983567 C944.473333,367.839278 944.4,367.634871 944.4,367.370341 L944.4,350.993587 C944.4,350.753105 944.473333,350.560722 944.62,350.416433 C944.766667,350.272144 944.973332,350.2 945.24,350.2 C945.506668,350.2 945.713333,350.272144 945.86,350.416433 C946.006667,350.560722 946.08,350.753105 946.08,350.993587 L946.08,367.370341 C946.08,367.634871 946.006667,367.839278 945.86,367.983567 C945.713333,368.127856 945.506668,368.2 945.24,368.2 Z M945.26,347.44 C943.773506,347.44 942.485231,346.937722 941.395135,345.933151 C940.30504,344.928579 939.76,343.622656 939.76,342.015342 C939.76,340.307571 940.280265,338.951421 941.320811,337.946849 C942.361357,336.942278 943.674406,336.44 945.26,336.44 C946.845594,336.44 948.158643,336.942278 949.199189,337.946849 C950.239735,338.951421 950.76,340.307571 950.76,342.015342 C950.76,343.622656 950.21496,344.928579 949.124865,345.933151 C948.034769,346.937722 946.746494,347.44 945.26,347.44 Z M945.26,346.44 C946.476222,346.44 947.530266,346.029045 948.422162,345.207123 C949.314059,344.385201 949.76,343.316719 949.76,342.001644 C949.76,340.604377 949.334329,339.494799 948.482973,338.672877 C947.631617,337.850955 946.557304,337.44 945.26,337.44 C943.962696,337.44 942.888383,337.850955 942.037027,338.672877 C941.185671,339.494799 940.76,340.604377 940.76,342.001644 C940.76,343.316719 941.205941,344.385201 942.097838,345.207123 C942.989734,346.029045 944.043778,346.44 945.26,346.44 Z M945.24,343.44 C944.839998,343.44 944.493335,343.306668 944.2,343.04 C943.906665,342.773332 943.76,342.426669 943.76,342 C943.76,341.546664 943.899999,341.186668 944.18,340.92 C944.460001,340.653332 944.813331,340.52 945.24,340.52 C945.666669,340.52 946.019999,340.653332 946.3,340.92 C946.580001,341.186668 946.72,341.546664 946.72,342 C946.72,342.426669 946.573335,342.773332 946.28,343.04 C945.986665,343.306668 945.640002,343.44 945.24,343.44 Z M973.8,353.8 C974.040001,353.8 974.233333,353.873333 974.38,354.02 C974.526667,354.166667 974.6,354.373332 974.6,354.64 L974.6,365.8 C974.6,365.933334 974.553334,366.066666 974.46,366.2 C974.366666,366.333334 974.253334,366.453333 974.12,366.56 C973.026661,367.093336 971.673341,367.519998 970.06,367.84 C968.446659,368.160002 966.786675,368.32 965.08,368.32 C962.386653,368.32 960.073343,367.753339 958.14,366.62 C956.206657,365.486661 954.726672,363.833344 953.7,361.66 C952.673328,359.486656 952.16,356.893348 952.16,353.88 C952.16,350.919985 952.666662,348.360011 953.68,346.2 C954.693338,344.039989 956.153324,342.380006 958.06,341.22 C959.966676,340.059994 962.21332,339.48 964.8,339.48 C966.666676,339.48 968.426658,339.799997 970.08,340.44 C971.733342,341.080003 973.079995,341.959994 974.12,343.08 C974.386668,343.426668 974.52,343.746665 974.52,344.04 C974.52,344.253334 974.466667,344.433333 974.36,344.58 C974.253333,344.726667 974.106668,344.8 973.92,344.8 C973.706666,344.8 973.480001,344.693334 973.24,344.48 C971.719992,343.199994 970.346673,342.320002 969.12,341.84 C967.893327,341.359998 966.453342,341.12 964.8,341.12 C961.359983,341.12 958.700009,342.233322 956.82,344.46 C954.939991,346.686678 954,349.826646 954,353.88 C954,358.013354 954.953324,361.186656 956.86,363.4 C958.766676,365.613344 961.506649,366.72 965.08,366.72 C966.546674,366.72 967.979993,366.586668 969.38,366.32 C970.780007,366.053332 971.999995,365.680002 973.04,365.2 L973.04,355.4 L966,355.4 C965.706665,355.4 965.480001,355.320001 965.32,355.16 C965.159999,354.999999 965.08,354.813334 965.08,354.6 C965.08,354.359999 965.159999,354.166667 965.32,354.02 C965.480001,353.873333 965.706665,353.8 966,353.8 L973.8,353.8 Z M990.28,348.24 C990.600002,348.24 990.819999,348.299999 990.94,348.42 C991.060001,348.540001 991.12,348.719999 991.12,348.96 C991.12,349.413336 990.840003,349.68 990.28,349.76 L989.08,349.88 C987.133324,350.066668 985.666672,350.78666 984.68,352.04 C983.693328,353.29334 983.2,354.733325 983.2,356.36 L983.2,367.28 C983.2,367.573335 983.126667,367.799999 982.98,367.96 C982.833333,368.120001 982.626668,368.2 982.36,368.2 C982.093332,368.2 981.886667,368.120001 981.74,367.96 C981.593333,367.799999 981.52,367.573335 981.52,367.28 L981.52,349.16 C981.52,348.546664 981.799997,348.24 982.36,348.24 C982.600001,348.24 982.799999,348.319999 982.96,348.48 C983.120001,348.640001 983.2,348.866665 983.2,349.16 L983.2,352.04 C984.346672,349.746655 986.426652,348.493334 989.44,348.28 L990,348.24 L990.28,348.24 Z M1002,348.16 C1006.45336,348.16 1008.68,350.546643 1008.68,355.32 L1008.68,367.24 C1008.68,367.533335 1008.60667,367.759999 1008.46,367.92 C1008.31333,368.080001 1008.10667,368.16 1007.84,368.16 C1007.57333,368.16 1007.36,368.073334 1007.2,367.9 C1007.04,367.726666 1006.96,367.506668 1006.96,367.24 L1006.96,364.44 C1006.37333,365.666673 1005.52667,366.61333 1004.42,367.28 C1003.31333,367.94667 1002.05334,368.28 1000.64,368.28 C999.413327,368.28 998.286672,368.026669 997.26,367.52 C996.233328,367.013331 995.420003,366.313338 994.82,365.42 C994.219997,364.526662 993.92,363.546672 993.92,362.48 C993.92,361.039993 994.299996,359.926671 995.06,359.14 C995.820004,358.353329 997.073325,357.786668 998.82,357.44 C1000.56668,357.093332 1003.01332,356.92 1006.16,356.92 L1006.96,356.92 L1006.96,355.24 C1006.96,353.346657 1006.58,351.966671 1005.82,351.1 C1005.06,350.233329 1003.86667,349.8 1002.24,349.8 C1000.95999,349.8 999.820005,349.966665 998.82,350.3 C997.819995,350.633335 997.02667,351.013331 996.44,351.44 C996.333333,351.52 996.113335,351.673332 995.78,351.9 C995.446665,352.126668 995.173334,352.24 994.96,352.24 C994.773332,352.24 994.606667,352.166667 994.46,352.02 C994.313333,351.873333 994.24,351.693334 994.24,351.48 C994.24,350.973331 994.706662,350.440003 995.64,349.88 C996.573338,349.319997 997.593328,348.893335 998.7,348.6 C999.806672,348.306665 1000.90666,348.16 1002,348.16 Z M1000.64,366.6 C1001.84001,366.6 1002.92,366.313336 1003.88,365.74 C1004.84,365.166664 1005.59333,364.373338 1006.14,363.36 C1006.68667,362.346662 1006.96,361.200006 1006.96,359.92 L1006.96,358.48 L1006.2,358.48 C1003.39999,358.48 1001.26667,358.593332 999.8,358.82 C998.333326,359.046668 997.30667,359.433331 996.72,359.98 C996.13333,360.526669 995.84,361.333328 995.84,362.4 C995.84,363.626673 996.293329,364.633329 997.2,365.42 C998.106671,366.206671 999.253326,366.6 1000.64,366.6 Z M1023.88,348.16 C1025.58668,348.16 1027.09333,348.579996 1028.4,349.42 C1029.70667,350.260004 1030.72,351.439992 1031.44,352.96 C1032.16,354.480008 1032.52,356.253323 1032.52,358.28 C1032.52,360.28001 1032.16,362.033326 1031.44,363.54 C1030.72,365.046674 1029.70667,366.213329 1028.4,367.04 C1027.09333,367.866671 1025.58668,368.28 1023.88,368.28 C1022.25333,368.28 1020.86001,367.920004 1019.7,367.2 C1018.53999,366.479996 1017.66667,365.440007 1017.08,364.08 L1017.08,374.48 C1017.08,374.773335 1017.00667,374.999999 1016.86,375.16 C1016.71333,375.320001 1016.50667,375.4 1016.24,375.4 C1015.68,375.4 1015.4,375.093336 1015.4,374.48 L1015.4,349.12 C1015.4,348.853332 1015.47333,348.640001 1015.62,348.48 C1015.76667,348.319999 1015.97333,348.24 1016.24,348.24 C1016.50667,348.24 1016.71333,348.319999 1016.86,348.48 C1017.00667,348.640001 1017.08,348.853332 1017.08,349.12 L1017.08,352.28 C1017.66667,350.94666 1018.53999,349.92667 1019.7,349.22 C1020.86001,348.51333 1022.25333,348.16 1023.88,348.16 Z M1023.84,366.64 C1026.00001,366.64 1027.67999,365.913341 1028.88,364.46 C1030.08001,363.006659 1030.68,360.94668 1030.68,358.28 C1030.68,355.61332 1030.08001,353.533341 1028.88,352.04 C1027.67999,350.546659 1026.01334,349.8 1023.88,349.8 C1021.69332,349.8 1020.01334,350.526659 1018.84,351.98 C1017.66666,353.433341 1017.08,355.506653 1017.08,358.2 C1017.08,360.893347 1017.66666,362.973326 1018.84,364.44 C1020.01334,365.906674 1021.67999,366.64 1023.84,366.64 Z M1046.36,348.16 C1048.68001,348.16 1050.43333,348.779994 1051.62,350.02 C1052.80667,351.260006 1053.4,353.093321 1053.4,355.52 L1053.4,367.28 C1053.4,367.573335 1053.32667,367.799999 1053.18,367.96 C1053.03333,368.120001 1052.82667,368.2 1052.56,368.2 C1052.29333,368.2 1052.08667,368.120001 1051.94,367.96 C1051.79333,367.799999 1051.72,367.573335 1051.72,367.28 L1051.72,355.72 C1051.72,353.63999 1051.30667,352.126671 1050.48,351.18 C1049.65333,350.233329 1048.32001,349.76 1046.48,349.76 C1044.42666,349.76 1042.78001,350.393327 1041.54,351.66 C1040.29999,352.926673 1039.68,354.613323 1039.68,356.72 L1039.68,367.28 C1039.68,367.573335 1039.60667,367.799999 1039.46,367.96 C1039.31333,368.120001 1039.10667,368.2 1038.84,368.2 C1038.6,368.2 1038.4,368.113334 1038.24,367.94 C1038.08,367.766666 1038,367.546668 1038,367.28 L1038,340.52 C1038,340.226665 1038.07333,340.000001 1038.22,339.84 C1038.36667,339.679999 1038.57333,339.6 1038.84,339.6 C1039.10667,339.6 1039.31333,339.679999 1039.46,339.84 C1039.60667,340.000001 1039.68,340.226665 1039.68,340.52 L1039.68,352.04 C1040.26667,350.78666 1041.14666,349.82667 1042.32,349.16 C1043.49334,348.49333 1044.83999,348.16 1046.36,348.16 Z M1066.494,359.072 C1067.262,359.072 1067.94,359.257998 1068.528,359.63 C1069.116,360.002002 1069.572,360.523997 1069.896,361.196 C1070.22,361.868003 1070.382,362.653996 1070.382,363.554 C1070.382,364.466005 1070.22,365.266997 1069.896,365.957 C1069.572,366.647003 1069.116,367.180998 1068.528,367.559 C1067.94,367.937002 1067.262,368.126 1066.494,368.126 C1065.762,368.126 1065.135,367.964002 1064.613,367.64 C1064.091,367.315998 1063.698,366.848003 1063.434,366.236 L1063.434,367.658 C1063.434,367.934001 1063.308,368.072 1063.056,368.072 C1062.936,368.072 1062.843,368.036 1062.777,367.964 C1062.711,367.892 1062.678,367.790001 1062.678,367.658 L1062.678,355.634 C1062.678,355.357999 1062.804,355.22 1063.056,355.22 C1063.176,355.22 1063.269,355.256 1063.335,355.328 C1063.401,355.4 1063.434,355.501999 1063.434,355.634 L1063.434,360.944 C1063.698,360.343997 1064.091,359.882002 1064.613,359.558 C1065.135,359.233998 1065.762,359.072 1066.494,359.072 Z M1066.494,367.388 C1067.454,367.388 1068.204,367.052003 1068.744,366.38 C1069.284,365.707997 1069.554,364.766006 1069.554,363.554 C1069.554,362.365994 1069.284,361.445003 1068.744,360.791 C1068.204,360.136997 1067.448,359.81 1066.476,359.81 C1065.504,359.81 1064.754,360.139997 1064.226,360.8 C1063.698,361.460003 1063.434,362.389994 1063.434,363.59 C1063.434,364.802006 1063.698,365.737997 1064.226,366.398 C1064.754,367.058003 1065.51,367.388 1066.494,367.388 Z M1079.328,359.36 C1079.4,359.191999 1079.514,359.108 1079.67,359.108 C1079.766,359.108 1079.85,359.141 1079.922,359.207 C1079.994,359.273 1080.03,359.359999 1080.03,359.468 C1080.03,359.504 1080.018,359.558 1079.994,359.63 L1074.828,371.078 C1074.756,371.222001 1074.648,371.294 1074.504,371.294 C1074.408,371.294 1074.327,371.264 1074.261,371.204 C1074.195,371.144 1074.162,371.066 1074.162,370.97 L1074.198,370.826 L1075.494,367.982 L1071.714,359.63 C1071.69,359.558 1071.678,359.504 1071.678,359.468 C1071.678,359.359999 1071.72,359.27 1071.804,359.198 C1071.888,359.126 1071.984,359.09 1072.092,359.09 C1072.224,359.09 1072.326,359.161999 1072.398,359.306 L1075.872,367.136 L1075.908,367.046 L1079.328,359.36 Z M1097.142,365.72 C1097.254,365.72 1097.35,365.764 1097.43,365.852 C1097.51,365.94 1097.55,366.039999 1097.55,366.152 C1097.55,366.312001 1097.49,366.467999 1097.37,366.62 C1097.25,366.772001 1097.038,366.943999 1096.734,367.136 C1095.58199,367.824003 1094.39001,368.168 1093.158,368.168 C1091.41399,368.168 1090.04201,367.632005 1089.042,366.56 C1088.042,365.487995 1087.542,364.016009 1087.542,362.144 C1087.542,360.943994 1087.766,359.888005 1088.214,358.976 C1088.662,358.063995 1089.294,357.356003 1090.11,356.852 C1090.926,356.347997 1091.86199,356.096 1092.918,356.096 C1094.39001,356.096 1095.55,356.575995 1096.398,357.536 C1097.246,358.496005 1097.67,359.807992 1097.67,361.472 C1097.67,361.760001 1097.614,361.967999 1097.502,362.096 C1097.39,362.224001 1097.19,362.288 1096.902,362.288 L1088.646,362.288 C1088.662,363.856008 1089.058,365.063996 1089.834,365.912 C1090.61,366.760004 1091.70199,367.184 1093.11,367.184 C1093.878,367.184 1094.514,367.080001 1095.018,366.872 C1095.522,366.663999 1096.014,366.392002 1096.494,366.056 C1096.83,365.831999 1097.046,365.72 1097.142,365.72 Z M1092.918,357.032 C1091.70199,357.032 1090.722,357.411996 1089.978,358.172 C1089.234,358.932004 1088.798,359.991993 1088.67,361.352 L1096.71,361.352 C1096.678,359.959993 1096.334,358.892004 1095.678,358.148 C1095.022,357.403996 1094.10201,357.032 1092.918,357.032 Z M1105.35,351.992 C1104.39,352.072 1103.658,352.379997 1103.154,352.916 C1102.65,353.452003 1102.398,354.279994 1102.398,355.4 L1102.398,356.384 L1105.59,356.384 C1105.702,356.384 1105.798,356.428 1105.878,356.516 C1105.958,356.604 1105.998,356.711999 1105.998,356.84 C1105.998,356.952001 1105.962,357.048 1105.89,357.128 C1105.818,357.208 1105.718,357.248 1105.59,357.248 L1102.398,357.248 L1102.398,367.568 C1102.398,367.728001 1102.35,367.859999 1102.254,367.964 C1102.158,368.068001 1102.038,368.12 1101.894,368.12 C1101.734,368.12 1101.61,368.072 1101.522,367.976 C1101.434,367.88 1101.39,367.744001 1101.39,367.568 L1101.39,357.248 L1099.398,357.248 C1099.286,357.248 1099.19,357.208 1099.11,357.128 C1099.03,357.048 1098.99,356.952001 1098.99,356.84 C1098.99,356.711999 1099.03,356.604 1099.11,356.516 C1099.19,356.428 1099.286,356.384 1099.398,356.384 L1101.39,356.384 L1101.39,355.688 C1101.39,354.295993 1101.714,353.208004 1102.362,352.424 C1103.01,351.639996 1103.96599,351.2 1105.23,351.104 L1105.854,351.056 L1106.046,351.056 C1106.366,351.056 1106.526,351.191999 1106.526,351.464 C1106.526,351.752001 1106.342,351.912 1105.974,351.944 L1105.35,351.992 Z M1112.598,351.992 C1111.638,352.072 1110.906,352.379997 1110.402,352.916 C1109.898,353.452003 1109.646,354.279994 1109.646,355.4 L1109.646,356.384 L1112.838,356.384 C1112.95,356.384 1113.046,356.428 1113.126,356.516 C1113.206,356.604 1113.246,356.711999 1113.246,356.84 C1113.246,356.952001 1113.21,357.048 1113.138,357.128 C1113.066,357.208 1112.966,357.248 1112.838,357.248 L1109.646,357.248 L1109.646,367.568 C1109.646,367.728001 1109.598,367.859999 1109.502,367.964 C1109.406,368.068001 1109.286,368.12 1109.142,368.12 C1108.982,368.12 1108.858,368.072 1108.77,367.976 C1108.682,367.88 1108.638,367.744001 1108.638,367.568 L1108.638,357.248 L1106.646,357.248 C1106.534,357.248 1106.438,357.208 1106.358,357.128 C1106.278,357.048 1106.238,356.952001 1106.238,356.84 C1106.238,356.711999 1106.278,356.604 1106.358,356.516 C1106.438,356.428 1106.534,356.384 1106.646,356.384 L1108.638,356.384 L1108.638,355.688 C1108.638,354.295993 1108.962,353.208004 1109.61,352.424 C1110.258,351.639996 1111.21399,351.2 1112.478,351.104 L1113.102,351.056 L1113.294,351.056 C1113.614,351.056 1113.774,351.191999 1113.774,351.464 C1113.774,351.752001 1113.59,351.912 1113.222,351.944 L1112.598,351.992 Z M1124.214,365.72 C1124.326,365.72 1124.422,365.764 1124.502,365.852 C1124.582,365.94 1124.622,366.039999 1124.622,366.152 C1124.622,366.312001 1124.562,366.467999 1124.442,366.62 C1124.322,366.772001 1124.11,366.943999 1123.806,367.136 C1122.65399,367.824003 1121.46201,368.168 1120.23,368.168 C1118.48599,368.168 1117.114,367.632005 1116.114,366.56 C1115.114,365.487995 1114.614,364.016009 1114.614,362.144 C1114.614,360.943994 1114.838,359.888005 1115.286,358.976 C1115.734,358.063995 1116.366,357.356003 1117.182,356.852 C1117.998,356.347997 1118.93399,356.096 1119.99,356.096 C1121.46201,356.096 1122.622,356.575995 1123.47,357.536 C1124.318,358.496005 1124.742,359.807992 1124.742,361.472 C1124.742,361.760001 1124.686,361.967999 1124.574,362.096 C1124.462,362.224001 1124.262,362.288 1123.974,362.288 L1115.718,362.288 C1115.734,363.856008 1116.13,365.063996 1116.906,365.912 C1117.682,366.760004 1118.77399,367.184 1120.182,367.184 C1120.95,367.184 1121.586,367.080001 1122.09,366.872 C1122.594,366.663999 1123.086,366.392002 1123.566,366.056 C1123.902,365.831999 1124.118,365.72 1124.214,365.72 Z M1119.99,357.032 C1118.77399,357.032 1117.794,357.411996 1117.05,358.172 C1116.306,358.932004 1115.87,359.991993 1115.742,361.352 L1123.782,361.352 C1123.75,359.959993 1123.406,358.892004 1122.75,358.148 C1122.094,357.403996 1121.17401,357.032 1119.99,357.032 Z M1132.446,368.168 C1131.42199,368.168 1130.51,367.920002 1129.71,367.424 C1128.91,366.927998 1128.29,366.224005 1127.85,365.312 C1127.41,364.399995 1127.19,363.352006 1127.19,362.168 C1127.19,360.967994 1127.41,359.908005 1127.85,358.988 C1128.29,358.067995 1128.914,357.356003 1129.722,356.852 C1130.53,356.347997 1131.45399,356.096 1132.494,356.096 C1133.086,356.096 1133.662,356.171999 1134.222,356.324 C1134.782,356.476001 1135.278,356.711998 1135.71,357.032 C1136.014,357.272001 1136.226,357.467999 1136.346,357.62 C1136.466,357.772001 1136.526,357.935999 1136.526,358.112 C1136.526,358.224001 1136.486,358.324 1136.406,358.412 C1136.326,358.5 1136.23,358.544 1136.118,358.544 C1136.038,358.544 1135.942,358.508 1135.83,358.436 C1135.718,358.364 1135.598,358.28 1135.47,358.184 C1135.038,357.847998 1134.602,357.576001 1134.162,357.368 C1133.722,357.159999 1133.174,357.056 1132.518,357.056 C1131.18999,357.056 1130.15,357.511995 1129.398,358.424 C1128.646,359.336005 1128.27,360.591992 1128.27,362.192 C1128.27,363.760008 1128.642,364.983996 1129.386,365.864 C1130.13,366.744004 1131.16599,367.184 1132.494,367.184 C1133.166,367.184 1133.738,367.080001 1134.21,366.872 C1134.682,366.663999 1135.134,366.392002 1135.566,366.056 C1135.87,365.831999 1136.078,365.72 1136.19,365.72 C1136.302,365.72 1136.398,365.76 1136.478,365.84 C1136.558,365.92 1136.598,366.015999 1136.598,366.128 C1136.598,366.288001 1136.542,366.431999 1136.43,366.56 C1136.318,366.688001 1136.102,366.879999 1135.782,367.136 C1135.366,367.440002 1134.854,367.687999 1134.246,367.88 C1133.638,368.072001 1133.038,368.168 1132.446,368.168 Z M1144.014,367.184 C1144.366,367.216 1144.542,367.375999 1144.542,367.664 C1144.542,368.016002 1144.31,368.168 1143.846,368.12 L1143.222,368.072 C1142.02199,367.992 1141.142,367.628003 1140.582,366.98 C1140.022,366.331997 1139.742,365.328007 1139.742,363.968 L1139.742,357.248 L1137.75,357.248 C1137.638,357.248 1137.542,357.208 1137.462,357.128 C1137.382,357.048 1137.342,356.952001 1137.342,356.84 C1137.342,356.711999 1137.382,356.604 1137.462,356.516 C1137.542,356.428 1137.638,356.384 1137.75,356.384 L1139.742,356.384 L1139.742,353.192 C1139.742,353.015999 1139.79,352.88 1139.886,352.784 C1139.982,352.688 1140.102,352.64 1140.246,352.64 C1140.39,352.64 1140.51,352.688 1140.606,352.784 C1140.702,352.88 1140.75,353.015999 1140.75,353.192 L1140.75,356.384 L1143.942,356.384 C1144.054,356.384 1144.15,356.428 1144.23,356.516 C1144.31,356.604 1144.35,356.711999 1144.35,356.84 C1144.35,356.952001 1144.314,357.048 1144.242,357.128 C1144.17,357.208 1144.07,357.248 1143.942,357.248 L1140.75,357.248 L1140.75,363.992 C1140.75,365.080005 1140.962,365.855998 1141.386,366.32 C1141.81,366.784002 1142.47,367.056 1143.366,367.136 L1144.014,367.184 Z M1151.814,356.096 C1154.63001,356.096 1156.038,357.567985 1156.038,360.512 L1156.038,367.568 C1156.038,367.936002 1155.87,368.12 1155.534,368.12 C1155.374,368.12 1155.25,368.072 1155.162,367.976 C1155.074,367.88 1155.03,367.744001 1155.03,367.568 L1155.03,360.608 C1155.03,359.375994 1154.782,358.476003 1154.286,357.908 C1153.79,357.339997 1152.99001,357.056 1151.886,357.056 C1150.65399,357.056 1149.666,357.435996 1148.922,358.196 C1148.178,358.956004 1147.806,359.967994 1147.806,361.232 L1147.806,367.568 C1147.806,367.744001 1147.762,367.88 1147.674,367.976 C1147.586,368.072 1147.462,368.12 1147.302,368.12 C1147.142,368.12 1147.018,368.072 1146.93,367.976 C1146.842,367.88 1146.798,367.744001 1146.798,367.568 L1146.798,356.696 C1146.798,356.327998 1146.966,356.144 1147.302,356.144 C1147.462,356.144 1147.582,356.192 1147.662,356.288 C1147.742,356.384 1147.782,356.519999 1147.782,356.696 L1147.782,358.472 C1148.134,357.703996 1148.666,357.116002 1149.378,356.708 C1150.09,356.299998 1150.902,356.096 1151.814,356.096 Z M1164.462,368.168 C1163.43799,368.168 1162.534,367.920002 1161.75,367.424 C1160.966,366.927998 1160.358,366.224005 1159.926,365.312 C1159.494,364.399995 1159.278,363.336006 1159.278,362.12 C1159.278,360.919994 1159.494,359.864005 1159.926,358.952 C1160.358,358.039995 1160.966,357.336002 1161.75,356.84 C1162.534,356.343998 1163.43799,356.096 1164.462,356.096 C1165.48601,356.096 1166.39,356.343998 1167.174,356.84 C1167.958,357.336002 1168.566,358.039995 1168.998,358.952 C1169.43,359.864005 1169.646,360.919994 1169.646,362.12 C1169.646,363.336006 1169.43,364.399995 1168.998,365.312 C1168.566,366.224005 1167.958,366.927998 1167.174,367.424 C1166.39,367.920002 1165.48601,368.168 1164.462,368.168 Z M1164.438,367.184 C1165.76601,367.184 1166.786,366.748004 1167.498,365.876 C1168.21,365.003996 1168.566,363.752008 1168.566,362.12 C1168.566,360.535992 1168.202,359.300004 1167.474,358.412 C1166.746,357.523996 1165.74201,357.08 1164.462,357.08 C1163.18199,357.08 1162.178,357.523996 1161.45,358.412 C1160.722,359.300004 1160.358,360.535992 1160.358,362.12 C1160.358,363.752008 1160.714,365.003996 1161.426,365.876 C1162.138,366.748004 1163.14199,367.184 1164.438,367.184 Z M1181.91,350.96 C1182.07,350.96 1182.194,351.008 1182.282,351.104 C1182.37,351.2 1182.414,351.335999 1182.414,351.512 L1182.414,367.544 C1182.414,367.720001 1182.37,367.856 1182.282,367.952 C1182.194,368.048 1182.07,368.096 1181.91,368.096 C1181.574,368.096 1181.406,367.912002 1181.406,367.544 L1181.406,365.648 C1181.054,366.464004 1180.53,367.087998 1179.834,367.52 C1179.138,367.952002 1178.302,368.168 1177.326,368.168 C1176.30199,368.168 1175.398,367.916003 1174.614,367.412 C1173.83,366.907997 1173.222,366.196005 1172.79,365.276 C1172.358,364.355995 1172.142,363.288006 1172.142,362.072 C1172.142,360.871994 1172.358,359.824004 1172.79,358.928 C1173.222,358.031996 1173.83,357.336002 1174.614,356.84 C1175.398,356.343998 1176.30199,356.096 1177.326,356.096 C1178.302,356.096 1179.138,356.311998 1179.834,356.744 C1180.53,357.176002 1181.054,357.791996 1181.406,358.592 L1181.406,351.512 C1181.406,351.143998 1181.574,350.96 1181.91,350.96 Z M1177.326,367.184 C1178.62201,367.184 1179.626,366.744004 1180.338,365.864 C1181.05,364.983996 1181.406,363.736008 1181.406,362.12 C1181.406,360.519992 1181.054,359.280004 1180.35,358.4 C1179.646,357.519996 1178.64601,357.08 1177.35,357.08 C1176.05399,357.08 1175.042,357.515996 1174.314,358.388 C1173.586,359.260004 1173.222,360.487992 1173.222,362.072 C1173.222,363.672008 1173.586,364.923995 1174.314,365.828 C1175.042,366.732005 1176.04599,367.184 1177.326,367.184 Z M1195.302,365.72 C1195.414,365.72 1195.51,365.764 1195.59,365.852 C1195.67,365.94 1195.71,366.039999 1195.71,366.152 C1195.71,366.312001 1195.65,366.467999 1195.53,366.62 C1195.41,366.772001 1195.198,366.943999 1194.894,367.136 C1193.74199,367.824003 1192.55001,368.168 1191.318,368.168 C1189.57399,368.168 1188.20201,367.632005 1187.202,366.56 C1186.202,365.487995 1185.702,364.016009 1185.702,362.144 C1185.702,360.943994 1185.926,359.888005 1186.374,358.976 C1186.822,358.063995 1187.454,357.356003 1188.27,356.852 C1189.086,356.347997 1190.02199,356.096 1191.078,356.096 C1192.55001,356.096 1193.71,356.575995 1194.558,357.536 C1195.406,358.496005 1195.83,359.807992 1195.83,361.472 C1195.83,361.760001 1195.774,361.967999 1195.662,362.096 C1195.55,362.224001 1195.35,362.288 1195.062,362.288 L1186.806,362.288 C1186.822,363.856008 1187.218,365.063996 1187.994,365.912 C1188.77,366.760004 1189.86199,367.184 1191.27,367.184 C1192.038,367.184 1192.674,367.080001 1193.178,366.872 C1193.682,366.663999 1194.174,366.392002 1194.654,366.056 C1194.99,365.831999 1195.206,365.72 1195.302,365.72 Z M1191.078,357.032 C1189.86199,357.032 1188.882,357.411996 1188.138,358.172 C1187.394,358.932004 1186.958,359.991993 1186.83,361.352 L1194.87,361.352 C1194.838,359.959993 1194.494,358.892004 1193.838,358.148 C1193.182,357.403996 1192.26201,357.032 1191.078,357.032 Z M1199.574,368.12 C1199.302,368.12 1199.078,368.032001 1198.902,367.856 C1198.726,367.679999 1198.638,367.448001 1198.638,367.16 C1198.638,366.871999 1198.726,366.640001 1198.902,366.464 C1199.078,366.287999 1199.302,366.2 1199.574,366.2 C1199.83,366.2 1200.046,366.287999 1200.222,366.464 C1200.398,366.640001 1200.486,366.871999 1200.486,367.16 C1200.486,367.448001 1200.398,367.679999 1200.222,367.856 C1200.046,368.032001 1199.83,368.12 1199.574,368.12 Z M1208.622,368.168 C1207.59799,368.168 1206.686,367.920002 1205.886,367.424 C1205.086,366.927998 1204.466,366.224005 1204.026,365.312 C1203.586,364.399995 1203.366,363.352006 1203.366,362.168 C1203.366,360.967994 1203.586,359.908005 1204.026,358.988 C1204.466,358.067995 1205.09,357.356003 1205.898,356.852 C1206.706,356.347997 1207.62999,356.096 1208.67,356.096 C1209.262,356.096 1209.838,356.171999 1210.398,356.324 C1210.958,356.476001 1211.454,356.711998 1211.886,357.032 C1212.19,357.272001 1212.402,357.467999 1212.522,357.62 C1212.642,357.772001 1212.702,357.935999 1212.702,358.112 C1212.702,358.224001 1212.662,358.324 1212.582,358.412 C1212.502,358.5 1212.406,358.544 1212.294,358.544 C1212.214,358.544 1212.118,358.508 1212.006,358.436 C1211.894,358.364 1211.774,358.28 1211.646,358.184 C1211.214,357.847998 1210.778,357.576001 1210.338,357.368 C1209.898,357.159999 1209.35,357.056 1208.694,357.056 C1207.36599,357.056 1206.326,357.511995 1205.574,358.424 C1204.822,359.336005 1204.446,360.591992 1204.446,362.192 C1204.446,363.760008 1204.818,364.983996 1205.562,365.864 C1206.306,366.744004 1207.34199,367.184 1208.67,367.184 C1209.342,367.184 1209.914,367.080001 1210.386,366.872 C1210.858,366.663999 1211.31,366.392002 1211.742,366.056 C1212.046,365.831999 1212.254,365.72 1212.366,365.72 C1212.478,365.72 1212.574,365.76 1212.654,365.84 C1212.734,365.92 1212.774,366.015999 1212.774,366.128 C1212.774,366.288001 1212.718,366.431999 1212.606,366.56 C1212.494,366.688001 1212.278,366.879999 1211.958,367.136 C1211.542,367.440002 1211.03,367.687999 1210.422,367.88 C1209.814,368.072001 1209.214,368.168 1208.622,368.168 Z M1219.83,368.168 C1218.80599,368.168 1217.902,367.920002 1217.118,367.424 C1216.334,366.927998 1215.726,366.224005 1215.294,365.312 C1214.862,364.399995 1214.646,363.336006 1214.646,362.12 C1214.646,360.919994 1214.862,359.864005 1215.294,358.952 C1215.726,358.039995 1216.334,357.336002 1217.118,356.84 C1217.902,356.343998 1218.80599,356.096 1219.83,356.096 C1220.85401,356.096 1221.758,356.343998 1222.542,356.84 C1223.326,357.336002 1223.934,358.039995 1224.366,358.952 C1224.798,359.864005 1225.014,360.919994 1225.014,362.12 C1225.014,363.336006 1224.798,364.399995 1224.366,365.312 C1223.934,366.224005 1223.326,366.927998 1222.542,367.424 C1221.758,367.920002 1220.85401,368.168 1219.83,368.168 Z M1219.806,367.184 C1221.13401,367.184 1222.154,366.748004 1222.866,365.876 C1223.578,365.003996 1223.934,363.752008 1223.934,362.12 C1223.934,360.535992 1223.57,359.300004 1222.842,358.412 C1222.114,357.523996 1221.11001,357.08 1219.83,357.08 C1218.54999,357.08 1217.546,357.523996 1216.818,358.412 C1216.09,359.300004 1215.726,360.535992 1215.726,362.12 C1215.726,363.752008 1216.082,365.003996 1216.794,365.876 C1217.506,366.748004 1218.50999,367.184 1219.806,367.184 Z M1240.446,356.096 C1243.00601,356.096 1244.286,357.567985 1244.286,360.512 L1244.286,367.568 C1244.286,367.728001 1244.242,367.859999 1244.154,367.964 C1244.066,368.068001 1243.942,368.12 1243.782,368.12 C1243.622,368.12 1243.498,368.068001 1243.41,367.964 C1243.322,367.859999 1243.278,367.728001 1243.278,367.568 L1243.278,360.632 C1243.278,359.383994 1243.054,358.476003 1242.606,357.908 C1242.158,357.339997 1241.446,357.056 1240.47,357.056 C1239.34999,357.056 1238.458,357.431996 1237.794,358.184 C1237.13,358.936004 1236.798,359.951994 1236.798,361.232 L1236.798,367.568 C1236.798,367.728001 1236.754,367.859999 1236.666,367.964 C1236.578,368.068001 1236.454,368.12 1236.294,368.12 C1236.134,368.12 1236.01,368.068001 1235.922,367.964 C1235.834,367.859999 1235.79,367.728001 1235.79,367.568 L1235.79,360.632 C1235.79,359.383994 1235.566,358.476003 1235.118,357.908 C1234.67,357.339997 1233.958,357.056 1232.982,357.056 C1231.84599,357.056 1230.95,357.431996 1230.294,358.184 C1229.638,358.936004 1229.31,359.951994 1229.31,361.232 L1229.31,367.568 C1229.31,367.728001 1229.266,367.859999 1229.178,367.964 C1229.09,368.068001 1228.966,368.12 1228.806,368.12 C1228.646,368.12 1228.522,368.068001 1228.434,367.964 C1228.346,367.859999 1228.302,367.728001 1228.302,367.568 L1228.302,356.696 C1228.302,356.327998 1228.47,356.144 1228.806,356.144 C1228.966,356.144 1229.086,356.192 1229.166,356.288 C1229.246,356.384 1229.286,356.519999 1229.286,356.696 L1229.286,358.424 C1229.606,357.671996 1230.082,357.096002 1230.714,356.696 C1231.346,356.295998 1232.094,356.096 1232.958,356.096 C1234.83001,356.096 1236.03,356.871992 1236.558,358.424 C1236.878,357.703996 1237.382,357.136002 1238.07,356.72 C1238.758,356.303998 1239.55,356.096 1240.446,356.096 Z" id="path-1"></path>
    </defs>
    <g id="Welcome" stroke="none" stroke-width="1" fill="none" fill-rule="evenodd">
        <g id="Desktop-HD" transform="translate(-939.000000, -336.000000)" fill-rule="nonzero">
            <g id="iGraphbyeffectnode.com">
                <use fill="#FFFFFF" xlink:href="#path-1"></use>
                <use fill="#D8D8D8" xlink:href="#path-1"></use>
            </g>
        </g>
    </g>
</svg>